<mxfile host="app.diagrams.net" modified="2023-11-03T07:40:13.467Z" agent="Mozilla/5.0 (Windows NT 10.0; Win64; x64) AppleWebKit/537.36 (KHTML, like Gecko) Chrome/117.0.0.0 Safari/537.36 OPR/103.0.0.0" etag="tCaf6anK2uGjfkKNicgW" version="22.0.8" type="github">
  <diagram name="Страница — 1" id="urgURgvJUuPnAh2E4qDl">
    <mxGraphModel dx="1380" dy="783" grid="1" gridSize="10" guides="1" tooltips="1" connect="1" arrows="1" fold="1" page="1" pageScale="1" pageWidth="827" pageHeight="1169" math="0" shadow="0">
      <root>
        <mxCell id="0" />
        <mxCell id="1" parent="0" />
        <mxCell id="0-VaCWMbDjNM-Yvoz6q8-63" style="edgeStyle=none;rounded=0;orthogonalLoop=1;jettySize=auto;html=1;strokeColor=#788AA3;fontColor=#46495D;fillColor=#B2C9AB;" edge="1" parent="1" source="0-VaCWMbDjNM-Yvoz6q8-4" target="0-VaCWMbDjNM-Yvoz6q8-8">
          <mxGeometry relative="1" as="geometry" />
        </mxCell>
        <mxCell id="0-VaCWMbDjNM-Yvoz6q8-4" value="App.tsx" style="swimlane;fontStyle=0;childLayout=stackLayout;horizontal=1;startSize=30;horizontalStack=0;resizeParent=1;resizeParentMax=0;resizeLast=0;collapsible=1;marginBottom=0;whiteSpace=wrap;html=1;labelBackgroundColor=none;fillColor=#B2C9AB;strokeColor=#788AA3;fontColor=#46495D;" vertex="1" parent="1">
          <mxGeometry x="354" y="110" width="140" height="60" as="geometry" />
        </mxCell>
        <mxCell id="0-VaCWMbDjNM-Yvoz6q8-5" value="BrowserRouter" style="text;strokeColor=none;fillColor=none;align=left;verticalAlign=middle;spacingLeft=4;spacingRight=4;overflow=hidden;points=[[0,0.5],[1,0.5]];portConstraint=eastwest;rotatable=0;whiteSpace=wrap;html=1;labelBackgroundColor=none;fontColor=#46495D;" vertex="1" parent="0-VaCWMbDjNM-Yvoz6q8-4">
          <mxGeometry y="30" width="140" height="30" as="geometry" />
        </mxCell>
        <mxCell id="0-VaCWMbDjNM-Yvoz6q8-51" style="edgeStyle=none;rounded=0;orthogonalLoop=1;jettySize=auto;html=1;entryX=0.5;entryY=0;entryDx=0;entryDy=0;strokeColor=#788AA3;fontColor=#46495D;fillColor=#B2C9AB;" edge="1" parent="1" source="0-VaCWMbDjNM-Yvoz6q8-8" target="0-VaCWMbDjNM-Yvoz6q8-17">
          <mxGeometry relative="1" as="geometry" />
        </mxCell>
        <mxCell id="0-VaCWMbDjNM-Yvoz6q8-52" style="edgeStyle=none;rounded=0;orthogonalLoop=1;jettySize=auto;html=1;entryX=0.5;entryY=0;entryDx=0;entryDy=0;strokeColor=#788AA3;fontColor=#46495D;fillColor=#B2C9AB;" edge="1" parent="1" source="0-VaCWMbDjNM-Yvoz6q8-8" target="0-VaCWMbDjNM-Yvoz6q8-14">
          <mxGeometry relative="1" as="geometry" />
        </mxCell>
        <mxCell id="0-VaCWMbDjNM-Yvoz6q8-53" style="edgeStyle=none;rounded=0;orthogonalLoop=1;jettySize=auto;html=1;entryX=0.5;entryY=0;entryDx=0;entryDy=0;strokeColor=#788AA3;fontColor=#46495D;fillColor=#B2C9AB;" edge="1" parent="1" source="0-VaCWMbDjNM-Yvoz6q8-8" target="0-VaCWMbDjNM-Yvoz6q8-12">
          <mxGeometry relative="1" as="geometry" />
        </mxCell>
        <mxCell id="0-VaCWMbDjNM-Yvoz6q8-8" value="components" style="swimlane;fontStyle=0;childLayout=stackLayout;horizontal=1;startSize=30;horizontalStack=0;resizeParent=1;resizeParentMax=0;resizeLast=0;collapsible=1;marginBottom=0;whiteSpace=wrap;html=1;labelBackgroundColor=none;fillColor=#ffe6cc;strokeColor=#d79b00;" vertex="1" parent="1">
          <mxGeometry x="354" y="180" width="140" height="60" as="geometry" />
        </mxCell>
        <mxCell id="0-VaCWMbDjNM-Yvoz6q8-9" value="Item 1" style="text;strokeColor=none;fillColor=none;align=left;verticalAlign=middle;spacingLeft=4;spacingRight=4;overflow=hidden;points=[[0,0.5],[1,0.5]];portConstraint=eastwest;rotatable=0;whiteSpace=wrap;html=1;labelBackgroundColor=none;fontColor=#46495D;" vertex="1" parent="0-VaCWMbDjNM-Yvoz6q8-8">
          <mxGeometry y="30" width="140" height="30" as="geometry" />
        </mxCell>
        <mxCell id="0-VaCWMbDjNM-Yvoz6q8-56" style="edgeStyle=none;rounded=0;orthogonalLoop=1;jettySize=auto;html=1;entryX=0.5;entryY=0;entryDx=0;entryDy=0;strokeColor=#788AA3;fontColor=#46495D;fillColor=#B2C9AB;" edge="1" parent="1" source="0-VaCWMbDjNM-Yvoz6q8-12" target="0-VaCWMbDjNM-Yvoz6q8-29">
          <mxGeometry relative="1" as="geometry" />
        </mxCell>
        <mxCell id="0-VaCWMbDjNM-Yvoz6q8-57" style="edgeStyle=none;rounded=0;orthogonalLoop=1;jettySize=auto;html=1;entryX=0.5;entryY=0;entryDx=0;entryDy=0;strokeColor=#788AA3;fontColor=#46495D;fillColor=#B2C9AB;" edge="1" parent="1" source="0-VaCWMbDjNM-Yvoz6q8-12" target="0-VaCWMbDjNM-Yvoz6q8-32">
          <mxGeometry relative="1" as="geometry" />
        </mxCell>
        <mxCell id="0-VaCWMbDjNM-Yvoz6q8-12" value="Profile" style="swimlane;fontStyle=0;childLayout=stackLayout;horizontal=1;startSize=30;horizontalStack=0;resizeParent=1;resizeParentMax=0;resizeLast=0;collapsible=1;marginBottom=0;whiteSpace=wrap;html=1;labelBackgroundColor=none;fillColor=#B2C9AB;strokeColor=#788AA3;fontColor=#46495D;" vertex="1" parent="1">
          <mxGeometry x="360" y="280" width="140" height="90" as="geometry">
            <mxRectangle x="350" y="360" width="70" height="30" as="alternateBounds" />
          </mxGeometry>
        </mxCell>
        <mxCell id="0-VaCWMbDjNM-Yvoz6q8-13" value="Profile.tsx" style="text;strokeColor=none;fillColor=none;align=left;verticalAlign=middle;spacingLeft=4;spacingRight=4;overflow=hidden;points=[[0,0.5],[1,0.5]];portConstraint=eastwest;rotatable=0;whiteSpace=wrap;html=1;labelBackgroundColor=none;fontColor=#46495D;" vertex="1" parent="0-VaCWMbDjNM-Yvoz6q8-12">
          <mxGeometry y="30" width="140" height="30" as="geometry" />
        </mxCell>
        <mxCell id="0-VaCWMbDjNM-Yvoz6q8-28" value="Profile.module.css" style="text;strokeColor=none;fillColor=none;align=left;verticalAlign=middle;spacingLeft=4;spacingRight=4;overflow=hidden;points=[[0,0.5],[1,0.5]];portConstraint=eastwest;rotatable=0;whiteSpace=wrap;html=1;labelBackgroundColor=none;fontColor=#46495D;" vertex="1" parent="0-VaCWMbDjNM-Yvoz6q8-12">
          <mxGeometry y="60" width="140" height="30" as="geometry" />
        </mxCell>
        <mxCell id="0-VaCWMbDjNM-Yvoz6q8-59" style="edgeStyle=none;rounded=0;orthogonalLoop=1;jettySize=auto;html=1;entryX=0.5;entryY=0;entryDx=0;entryDy=0;strokeColor=#788AA3;fontColor=#46495D;fillColor=#B2C9AB;" edge="1" parent="1" source="0-VaCWMbDjNM-Yvoz6q8-14" target="0-VaCWMbDjNM-Yvoz6q8-23">
          <mxGeometry relative="1" as="geometry" />
        </mxCell>
        <mxCell id="0-VaCWMbDjNM-Yvoz6q8-14" value="Dialogs" style="swimlane;fontStyle=0;childLayout=stackLayout;horizontal=1;startSize=30;horizontalStack=0;resizeParent=1;resizeParentMax=0;resizeLast=0;collapsible=1;marginBottom=0;whiteSpace=wrap;html=1;labelBackgroundColor=none;fillColor=#B2C9AB;strokeColor=#788AA3;fontColor=#46495D;" vertex="1" parent="1">
          <mxGeometry x="180" y="280" width="140" height="90" as="geometry" />
        </mxCell>
        <mxCell id="0-VaCWMbDjNM-Yvoz6q8-16" value="Dialogs.tsx" style="text;strokeColor=none;fillColor=none;align=left;verticalAlign=middle;spacingLeft=4;spacingRight=4;overflow=hidden;points=[[0,0.5],[1,0.5]];portConstraint=eastwest;rotatable=0;whiteSpace=wrap;html=1;labelBackgroundColor=none;fontColor=#46495D;" vertex="1" parent="0-VaCWMbDjNM-Yvoz6q8-14">
          <mxGeometry y="30" width="140" height="30" as="geometry" />
        </mxCell>
        <mxCell id="0-VaCWMbDjNM-Yvoz6q8-25" value="Dialogs.module.css" style="text;strokeColor=none;fillColor=none;align=left;verticalAlign=middle;spacingLeft=4;spacingRight=4;overflow=hidden;points=[[0,0.5],[1,0.5]];portConstraint=eastwest;rotatable=0;whiteSpace=wrap;html=1;labelBackgroundColor=none;fontColor=#46495D;" vertex="1" parent="0-VaCWMbDjNM-Yvoz6q8-14">
          <mxGeometry y="60" width="140" height="30" as="geometry" />
        </mxCell>
        <mxCell id="0-VaCWMbDjNM-Yvoz6q8-17" value="NavBar" style="swimlane;fontStyle=0;childLayout=stackLayout;horizontal=1;startSize=30;horizontalStack=0;resizeParent=1;resizeParentMax=0;resizeLast=0;collapsible=1;marginBottom=0;whiteSpace=wrap;html=1;labelBackgroundColor=none;fillColor=#B2C9AB;strokeColor=#788AA3;fontColor=#46495D;" vertex="1" parent="1">
          <mxGeometry x="520" y="280" width="140" height="60" as="geometry" />
        </mxCell>
        <mxCell id="0-VaCWMbDjNM-Yvoz6q8-18" value="Item 1" style="text;strokeColor=none;fillColor=none;align=left;verticalAlign=middle;spacingLeft=4;spacingRight=4;overflow=hidden;points=[[0,0.5],[1,0.5]];portConstraint=eastwest;rotatable=0;whiteSpace=wrap;html=1;labelBackgroundColor=none;fontColor=#46495D;" vertex="1" parent="0-VaCWMbDjNM-Yvoz6q8-17">
          <mxGeometry y="30" width="140" height="30" as="geometry" />
        </mxCell>
        <mxCell id="0-VaCWMbDjNM-Yvoz6q8-19" value="Header" style="swimlane;fontStyle=0;childLayout=stackLayout;horizontal=1;startSize=30;horizontalStack=0;resizeParent=1;resizeParentMax=0;resizeLast=0;collapsible=1;marginBottom=0;whiteSpace=wrap;html=1;labelBackgroundColor=none;fillColor=#B2C9AB;strokeColor=#788AA3;fontColor=#46495D;" vertex="1" parent="1">
          <mxGeometry x="687" y="280" width="140" height="60" as="geometry" />
        </mxCell>
        <mxCell id="0-VaCWMbDjNM-Yvoz6q8-20" value="Item 1" style="text;strokeColor=none;fillColor=none;align=left;verticalAlign=middle;spacingLeft=4;spacingRight=4;overflow=hidden;points=[[0,0.5],[1,0.5]];portConstraint=eastwest;rotatable=0;whiteSpace=wrap;html=1;labelBackgroundColor=none;fontColor=#46495D;" vertex="1" parent="0-VaCWMbDjNM-Yvoz6q8-19">
          <mxGeometry y="30" width="140" height="30" as="geometry" />
        </mxCell>
        <mxCell id="0-VaCWMbDjNM-Yvoz6q8-21" value="DialogItem" style="swimlane;fontStyle=0;childLayout=stackLayout;horizontal=1;startSize=30;horizontalStack=0;resizeParent=1;resizeParentMax=0;resizeLast=0;collapsible=1;marginBottom=0;whiteSpace=wrap;html=1;labelBackgroundColor=none;fillColor=#B2C9AB;strokeColor=#788AA3;fontColor=#46495D;" vertex="1" parent="1">
          <mxGeometry x="20" y="430" width="140" height="60" as="geometry" />
        </mxCell>
        <mxCell id="0-VaCWMbDjNM-Yvoz6q8-22" value="DialogItem.tsx" style="text;strokeColor=none;fillColor=none;align=left;verticalAlign=middle;spacingLeft=4;spacingRight=4;overflow=hidden;points=[[0,0.5],[1,0.5]];portConstraint=eastwest;rotatable=0;whiteSpace=wrap;html=1;labelBackgroundColor=none;fontColor=#46495D;" vertex="1" parent="0-VaCWMbDjNM-Yvoz6q8-21">
          <mxGeometry y="30" width="140" height="30" as="geometry" />
        </mxCell>
        <mxCell id="0-VaCWMbDjNM-Yvoz6q8-23" value="Message" style="swimlane;fontStyle=0;childLayout=stackLayout;horizontal=1;startSize=30;horizontalStack=0;resizeParent=1;resizeParentMax=0;resizeLast=0;collapsible=1;marginBottom=0;whiteSpace=wrap;html=1;labelBackgroundColor=none;fillColor=#B2C9AB;strokeColor=#788AA3;fontColor=#46495D;" vertex="1" parent="1">
          <mxGeometry x="180" y="430" width="140" height="60" as="geometry" />
        </mxCell>
        <mxCell id="0-VaCWMbDjNM-Yvoz6q8-24" value="Message.tsx" style="text;strokeColor=none;fillColor=none;align=left;verticalAlign=middle;spacingLeft=4;spacingRight=4;overflow=hidden;points=[[0,0.5],[1,0.5]];portConstraint=eastwest;rotatable=0;whiteSpace=wrap;html=1;labelBackgroundColor=none;fontColor=#46495D;" vertex="1" parent="0-VaCWMbDjNM-Yvoz6q8-23">
          <mxGeometry y="30" width="140" height="30" as="geometry" />
        </mxCell>
        <mxCell id="0-VaCWMbDjNM-Yvoz6q8-29" value="ProfileInfo" style="swimlane;fontStyle=0;childLayout=stackLayout;horizontal=1;startSize=30;horizontalStack=0;resizeParent=1;resizeParentMax=0;resizeLast=0;collapsible=1;marginBottom=0;whiteSpace=wrap;html=1;labelBackgroundColor=none;fillColor=#B2C9AB;strokeColor=#788AA3;fontColor=#46495D;" vertex="1" parent="1">
          <mxGeometry x="344" y="415" width="140" height="90" as="geometry" />
        </mxCell>
        <mxCell id="0-VaCWMbDjNM-Yvoz6q8-30" value="ProfileInfo.tsx" style="text;strokeColor=none;fillColor=none;align=left;verticalAlign=middle;spacingLeft=4;spacingRight=4;overflow=hidden;points=[[0,0.5],[1,0.5]];portConstraint=eastwest;rotatable=0;whiteSpace=wrap;html=1;labelBackgroundColor=none;fontColor=#46495D;" vertex="1" parent="0-VaCWMbDjNM-Yvoz6q8-29">
          <mxGeometry y="30" width="140" height="30" as="geometry" />
        </mxCell>
        <mxCell id="0-VaCWMbDjNM-Yvoz6q8-31" value="ProfileInfo.module.css" style="text;strokeColor=none;fillColor=none;align=left;verticalAlign=middle;spacingLeft=4;spacingRight=4;overflow=hidden;points=[[0,0.5],[1,0.5]];portConstraint=eastwest;rotatable=0;whiteSpace=wrap;html=1;labelBackgroundColor=none;fontColor=#46495D;" vertex="1" parent="0-VaCWMbDjNM-Yvoz6q8-29">
          <mxGeometry y="60" width="140" height="30" as="geometry" />
        </mxCell>
        <mxCell id="0-VaCWMbDjNM-Yvoz6q8-58" style="edgeStyle=none;rounded=0;orthogonalLoop=1;jettySize=auto;html=1;strokeColor=#788AA3;fontColor=#46495D;fillColor=#B2C9AB;" edge="1" parent="1" source="0-VaCWMbDjNM-Yvoz6q8-32" target="0-VaCWMbDjNM-Yvoz6q8-35">
          <mxGeometry relative="1" as="geometry" />
        </mxCell>
        <mxCell id="0-VaCWMbDjNM-Yvoz6q8-32" value="MyPost" style="swimlane;fontStyle=0;childLayout=stackLayout;horizontal=1;startSize=30;horizontalStack=0;resizeParent=1;resizeParentMax=0;resizeLast=0;collapsible=1;marginBottom=0;whiteSpace=wrap;html=1;labelBackgroundColor=none;fillColor=#B2C9AB;strokeColor=#788AA3;fontColor=#46495D;" vertex="1" parent="1">
          <mxGeometry x="510" y="415" width="140" height="90" as="geometry" />
        </mxCell>
        <mxCell id="0-VaCWMbDjNM-Yvoz6q8-33" value="MyPosts.tsx" style="text;strokeColor=none;fillColor=none;align=left;verticalAlign=middle;spacingLeft=4;spacingRight=4;overflow=hidden;points=[[0,0.5],[1,0.5]];portConstraint=eastwest;rotatable=0;whiteSpace=wrap;html=1;labelBackgroundColor=none;fontColor=#46495D;" vertex="1" parent="0-VaCWMbDjNM-Yvoz6q8-32">
          <mxGeometry y="30" width="140" height="30" as="geometry" />
        </mxCell>
        <mxCell id="0-VaCWMbDjNM-Yvoz6q8-34" value="MyPost.module.css" style="text;strokeColor=none;fillColor=none;align=left;verticalAlign=middle;spacingLeft=4;spacingRight=4;overflow=hidden;points=[[0,0.5],[1,0.5]];portConstraint=eastwest;rotatable=0;whiteSpace=wrap;html=1;labelBackgroundColor=none;fontColor=#46495D;" vertex="1" parent="0-VaCWMbDjNM-Yvoz6q8-32">
          <mxGeometry y="60" width="140" height="30" as="geometry" />
        </mxCell>
        <mxCell id="0-VaCWMbDjNM-Yvoz6q8-35" value="Post" style="swimlane;fontStyle=0;childLayout=stackLayout;horizontal=1;startSize=30;horizontalStack=0;resizeParent=1;resizeParentMax=0;resizeLast=0;collapsible=1;marginBottom=0;whiteSpace=wrap;html=1;labelBackgroundColor=none;fillColor=#B2C9AB;strokeColor=#788AA3;fontColor=#46495D;" vertex="1" parent="1">
          <mxGeometry x="520" y="540" width="140" height="90" as="geometry" />
        </mxCell>
        <mxCell id="0-VaCWMbDjNM-Yvoz6q8-36" value="Post.tsx" style="text;strokeColor=none;fillColor=none;align=left;verticalAlign=middle;spacingLeft=4;spacingRight=4;overflow=hidden;points=[[0,0.5],[1,0.5]];portConstraint=eastwest;rotatable=0;whiteSpace=wrap;html=1;labelBackgroundColor=none;fontColor=#46495D;" vertex="1" parent="0-VaCWMbDjNM-Yvoz6q8-35">
          <mxGeometry y="30" width="140" height="30" as="geometry" />
        </mxCell>
        <mxCell id="0-VaCWMbDjNM-Yvoz6q8-37" value="Post.module.css" style="text;strokeColor=none;fillColor=none;align=left;verticalAlign=middle;spacingLeft=4;spacingRight=4;overflow=hidden;points=[[0,0.5],[1,0.5]];portConstraint=eastwest;rotatable=0;whiteSpace=wrap;html=1;labelBackgroundColor=none;fontColor=#46495D;" vertex="1" parent="0-VaCWMbDjNM-Yvoz6q8-35">
          <mxGeometry y="60" width="140" height="30" as="geometry" />
        </mxCell>
        <mxCell id="0-VaCWMbDjNM-Yvoz6q8-54" style="edgeStyle=none;rounded=0;orthogonalLoop=1;jettySize=auto;html=1;entryX=0.55;entryY=0.05;entryDx=0;entryDy=0;entryPerimeter=0;strokeColor=#788AA3;fontColor=#46495D;fillColor=#B2C9AB;" edge="1" parent="1" source="0-VaCWMbDjNM-Yvoz6q8-9" target="0-VaCWMbDjNM-Yvoz6q8-19">
          <mxGeometry relative="1" as="geometry" />
        </mxCell>
        <mxCell id="0-VaCWMbDjNM-Yvoz6q8-60" style="edgeStyle=none;rounded=0;orthogonalLoop=1;jettySize=auto;html=1;entryX=0.6;entryY=0.017;entryDx=0;entryDy=0;entryPerimeter=0;strokeColor=#788AA3;fontColor=#46495D;fillColor=#B2C9AB;" edge="1" parent="1" source="0-VaCWMbDjNM-Yvoz6q8-14" target="0-VaCWMbDjNM-Yvoz6q8-21">
          <mxGeometry relative="1" as="geometry" />
        </mxCell>
        <mxCell id="0-VaCWMbDjNM-Yvoz6q8-64" style="edgeStyle=none;rounded=0;orthogonalLoop=1;jettySize=auto;html=1;strokeColor=#788AA3;fontColor=#46495D;fillColor=#B2C9AB;" edge="1" parent="1" source="0-VaCWMbDjNM-Yvoz6q8-61" target="0-VaCWMbDjNM-Yvoz6q8-4">
          <mxGeometry relative="1" as="geometry" />
        </mxCell>
        <mxCell id="0-VaCWMbDjNM-Yvoz6q8-61" value="Index.tsx" style="swimlane;fontStyle=0;childLayout=stackLayout;horizontal=1;startSize=30;horizontalStack=0;resizeParent=1;resizeParentMax=0;resizeLast=0;collapsible=1;marginBottom=0;whiteSpace=wrap;html=1;labelBackgroundColor=none;fillColor=#B2C9AB;strokeColor=#788AA3;fontColor=#46495D;" vertex="1" parent="1">
          <mxGeometry x="354" y="30" width="140" height="60" as="geometry" />
        </mxCell>
        <mxCell id="0-VaCWMbDjNM-Yvoz6q8-62" value="Item 1" style="text;strokeColor=none;fillColor=none;align=left;verticalAlign=middle;spacingLeft=4;spacingRight=4;overflow=hidden;points=[[0,0.5],[1,0.5]];portConstraint=eastwest;rotatable=0;whiteSpace=wrap;html=1;labelBackgroundColor=none;fontColor=#46495D;" vertex="1" parent="0-VaCWMbDjNM-Yvoz6q8-61">
          <mxGeometry y="30" width="140" height="30" as="geometry" />
        </mxCell>
        <mxCell id="0-VaCWMbDjNM-Yvoz6q8-65" value="redux" style="swimlane;fontStyle=0;childLayout=stackLayout;horizontal=1;startSize=30;horizontalStack=0;resizeParent=1;resizeParentMax=0;resizeLast=0;collapsible=1;marginBottom=0;whiteSpace=wrap;html=1;labelBackgroundColor=none;fillColor=#ffe6cc;strokeColor=#d79b00;" vertex="1" parent="1">
          <mxGeometry x="110" y="180" width="140" height="60" as="geometry" />
        </mxCell>
        <mxCell id="0-VaCWMbDjNM-Yvoz6q8-66" value="state.tsx" style="text;strokeColor=none;fillColor=none;align=left;verticalAlign=middle;spacingLeft=4;spacingRight=4;overflow=hidden;points=[[0,0.5],[1,0.5]];portConstraint=eastwest;rotatable=0;whiteSpace=wrap;html=1;labelBackgroundColor=none;fontColor=#46495D;" vertex="1" parent="0-VaCWMbDjNM-Yvoz6q8-65">
          <mxGeometry y="30" width="140" height="30" as="geometry" />
        </mxCell>
        <mxCell id="0-VaCWMbDjNM-Yvoz6q8-70" value="пример&amp;nbsp; прописывания относительного пути к файлам от Myposts.tsx&lt;br&gt;&lt;br&gt;&lt;br&gt;import React from &quot;react&quot;;&lt;br&gt;import s from &quot;./MyPosts.module.css&quot;;&lt;br&gt;import Post from &quot;./Post/Post&quot;;&lt;br&gt;&lt;br&gt;import Profile from &quot;./../Profile&quot;;&lt;br&gt;import Dialogs from &quot;./../../Dialogs/Dialogs&quot;;&lt;br&gt;import App from &quot;./../../../App&quot;;&lt;br&gt;import state from &quot;./../../../redux/state&quot;;&lt;br&gt;import  { RootStateType } from &quot;./../../../redux/state&quot;;" style="text;whiteSpace=wrap;html=1;fillColor=#d5e8d4;strokeColor=#82b366;" vertex="1" parent="1">
          <mxGeometry x="44" y="620" width="300" height="210" as="geometry" />
        </mxCell>
      </root>
    </mxGraphModel>
  </diagram>
</mxfile>
